<svg width="241" height="84" viewBox="0 0 241 84" fill="none" xmlns="http://www.w3.org/2000/svg">
    <path style="fill:#78FFA8;" d="M3.60033 60.5197C3.76033 60.1997 3.92033 60.0797 4.08033 60.1597C4.32033 60.1597 4.44033 60.3197 4.44033 60.6397C4.28033 67.5997 5.76033 72.8797 8.88033 76.4797C12.0003 80.0797 16.5203 81.8797 22.4403 81.8797C26.4403 81.8797 29.5203 81.2397 31.6803 79.9597C33.9203 78.6797 35.0403 76.4797 35.0403 73.3597C34.9603 70.0797 33.5603 67.2797 30.8403 64.9597C28.2003 62.5597 24.0003 59.8397 18.2403 56.7997C13.0403 53.9197 9.12033 51.3197 6.48033 48.9997C3.84033 46.6797 2.52033 43.9597 2.52033 40.8397C2.52033 38.2797 3.48033 35.8797 5.40033 33.6397C7.32033 31.3197 9.96033 29.4797 13.3203 28.1197C16.6803 26.7597 20.4403 26.0797 24.6003 26.0797C29.8003 26.0797 34.4803 26.7997 38.6403 28.2397C42.8803 29.6797 44.6803 31.7597 44.0403 34.4797L40.6803 47.7997C40.6003 48.0397 40.4403 48.1597 40.2003 48.1597C40.0403 48.1597 40.0003 47.9997 40.0803 47.6797C40.0803 40.9597 38.6803 36.0397 35.8803 32.9197C33.1603 29.7197 28.7603 28.1197 22.6803 28.1197C18.5203 28.1197 15.6403 28.7197 14.0403 29.9197C12.5203 31.1197 11.7603 32.7597 11.7603 34.8397C11.7603 36.5197 12.4003 38.1197 13.6803 39.6397C14.9603 41.0797 16.6003 42.4397 18.6003 43.7197C20.6003 44.9197 23.6403 46.6397 27.7203 48.8797C33.1603 51.8397 37.4403 54.7597 40.5603 57.6397C43.7603 60.4397 45.3603 63.7997 45.3603 67.7197C45.3603 70.5997 44.3203 73.2797 42.2403 75.7597C40.2403 78.1597 37.3603 80.1197 33.6003 81.6397C29.9203 83.0797 25.7203 83.7997 21.0003 83.7997C17.1603 83.7997 13.6003 83.3597 10.3203 82.4797C7.12033 81.6797 4.64033 80.5197 2.88033 78.9997C1.12033 77.4797 0.400331 75.8397 0.720331 74.0797L3.60033 60.5197ZM103.034 71.6797C103.114 71.5197 103.234 71.5197 103.394 71.6797C103.634 71.8397 103.674 72.0397 103.514 72.2797C100.474 76.1197 96.8744 78.9997 92.7144 80.9197C88.5544 82.7597 84.0744 83.6797 79.2744 83.6797C74.3944 83.6797 69.8744 82.5197 65.7144 80.1997C61.5544 77.8797 58.2344 74.5997 55.7544 70.3597C53.2744 66.1197 52.0344 61.2797 52.0344 55.8397C52.0344 50.2397 53.3544 45.1997 55.9944 40.7197C58.7144 36.1597 62.3544 32.5997 66.9144 30.0397C71.4744 27.3997 76.4344 26.0797 81.7944 26.0797C87.7944 26.0797 92.7544 27.7597 96.6744 31.1197C100.674 34.4797 102.674 38.9997 102.674 44.6797C102.674 47.4797 102.234 50.1997 101.354 52.8397C94.7944 52.9197 81.5144 53.2397 61.5144 53.7997C62.4744 58.5197 64.3544 62.7197 67.1544 66.3997C70.0344 70.0797 73.3544 72.9197 77.1144 74.9197C80.8744 76.9197 84.5544 77.9197 88.1544 77.9197C94.7944 77.9197 99.7544 75.8397 103.034 71.6797ZM77.2344 28.1197C71.9544 28.1197 67.9144 29.7197 65.1144 32.9197C62.3144 36.0397 60.9144 40.7997 60.9144 47.1997C60.9144 49.4397 61.0744 51.3997 61.3944 53.0797L75.5544 52.5997C78.9944 52.3597 84.3144 52.1597 91.5144 51.9997C92.1544 50.7197 92.4744 49.1197 92.4744 47.1997C92.4744 44.3997 91.7544 41.5197 90.3144 38.5597C88.8744 35.5197 86.9544 33.0397 84.5544 31.1197C82.2344 29.1197 79.7944 28.1197 77.2344 28.1197ZM210.736 63.3997C210.736 62.9997 210.856 62.7997 211.096 62.7997C211.416 62.7997 211.576 62.9997 211.576 63.3997C211.576 68.9197 210.496 73.6397 208.336 77.5597C206.256 81.3997 203.336 83.3197 199.576 83.3197C196.776 83.3197 194.456 82.3197 192.616 80.3197C190.856 78.2397 189.976 75.1597 189.976 71.0797V43.1197C189.976 38.8797 188.896 35.7197 186.736 33.6397C184.576 31.5597 181.776 30.5197 178.336 30.5197C173.936 30.5197 170.536 32.4397 168.136 36.2797C165.816 40.0397 164.576 44.7597 164.416 50.4397L164.536 71.3197C164.536 74.9997 165.136 77.5997 166.336 79.1197C167.536 80.5597 169.376 81.2797 171.856 81.2797C172.256 81.2797 172.456 81.4397 172.456 81.7597C172.456 82.0797 172.256 82.2397 171.856 82.2397C169.296 82.0797 166.936 81.9997 164.776 81.9997L157.096 82.1197C152.376 82.1197 149.376 82.1597 148.096 82.2397C147.696 82.2397 147.496 82.1197 147.496 81.8797C147.496 81.5597 147.696 81.3997 148.096 81.3997C149.936 81.3997 151.336 80.8397 152.296 79.7197C153.256 78.5197 153.736 76.1597 153.736 72.6397V43.1197C153.736 38.8797 152.656 35.7197 150.496 33.6397C148.416 31.5597 145.616 30.5197 142.096 30.5197C137.936 30.5197 134.696 32.2797 132.376 35.7997C130.056 39.2397 128.696 43.5997 128.296 48.8797V72.6397C128.296 75.7597 128.856 77.9997 129.976 79.3597C131.096 80.6397 132.656 81.3197 134.656 81.3997C135.056 81.3997 135.256 81.5597 135.256 81.8797C135.256 82.1197 135.056 82.2397 134.656 82.2397C131.136 82.0797 127.496 81.9997 123.736 81.9997C118.856 81.9997 114.416 82.0797 110.416 82.2397C110.016 82.2397 109.816 82.1197 109.816 81.8797C109.816 81.5597 110.016 81.3997 110.416 81.3997C112.176 81.3997 113.536 81.1997 114.496 80.7997C115.456 80.3997 116.176 79.5997 116.656 78.3997C117.216 77.1197 117.496 75.1997 117.496 72.6397V40.9597C117.496 38.3997 117.096 36.5197 116.296 35.3197C115.576 34.1197 114.256 33.5197 112.336 33.5197C112.016 33.5197 111.296 33.5997 110.176 33.7597C109.856 33.8397 109.656 33.7997 109.576 33.6397C109.576 33.3997 109.696 33.2397 109.936 33.1597C118.336 31.0797 124.416 28.7597 128.176 26.1997C128.496 25.9597 128.776 25.8797 129.016 25.9597C129.336 26.0397 129.496 26.2397 129.496 26.5597C129.016 30.0797 128.696 32.8797 128.536 34.9597C128.376 37.0397 128.296 39.5197 128.296 42.3997C129.176 37.7597 131.216 33.8797 134.416 30.7597C137.696 27.6397 141.896 26.0797 147.016 26.0797C149.976 26.0797 152.776 26.7597 155.416 28.1197C158.056 29.3997 160.216 31.3597 161.896 33.9997C163.576 36.5597 164.416 39.5997 164.416 43.1197C165.296 38.3197 167.336 34.2797 170.536 30.9997C173.816 27.7197 178.096 26.0797 183.376 26.0797C186.336 26.0797 189.136 26.7197 191.776 27.9997C194.416 29.2797 196.536 31.2397 198.136 33.8797C199.816 36.4397 200.656 39.6397 200.656 43.4797L200.776 68.9197C200.776 71.5597 201.056 73.5197 201.616 74.7997C202.256 75.9997 203.296 76.5997 204.736 76.5997C207.216 76.5997 208.816 75.4797 209.536 73.2397C210.256 70.9197 210.656 67.6397 210.736 63.3997ZM232.358 71.3197C232.358 74.1997 232.958 76.5997 234.158 78.5197C235.438 80.3597 237.238 81.3197 239.558 81.3997C239.958 81.3997 240.158 81.5597 240.158 81.8797C240.158 82.1197 239.958 82.2397 239.558 82.2397C238.118 82.1597 233.958 82.1197 227.078 82.1197C220.198 82.1197 215.998 82.1597 214.478 82.2397C214.078 82.2397 213.878 82.1197 213.878 81.8797C213.878 81.5597 214.078 81.3997 214.478 81.3997C219.198 81.3997 221.558 78.0397 221.558 71.3197V40.9597C221.558 38.3997 221.158 36.5197 220.358 35.3197C219.638 34.1197 218.318 33.5197 216.398 33.5197C216.078 33.5197 215.358 33.5997 214.238 33.7597C213.918 33.8397 213.718 33.7997 213.638 33.6397C213.638 33.3997 213.758 33.2397 213.998 33.1597C222.398 31.0797 228.478 28.7597 232.238 26.1997C232.558 25.9597 232.838 25.8797 233.078 25.9597C233.398 26.0397 233.558 26.2397 233.558 26.5597C233.078 30.1597 232.758 33.0397 232.598 35.1997C232.438 37.3597 232.358 39.9597 232.358 42.9997V71.3197Z"/>
    <path style="fill:#78FFA8;" d="M220.359 10.7199C221.559 11.5999 223.199 12.0399 225.279 12.0399C227.839 12.0399 229.919 11.4399 231.519 10.2399C233.199 8.95989 234.039 7.47989 234.039 5.79988C234.039 4.35988 233.399 3.19988 232.119 2.31989C230.919 1.35988 229.279 0.879883 227.199 0.879883C224.639 0.879883 222.559 1.51988 220.959 2.79989C219.359 3.99989 218.559 5.47989 218.559 7.23989C218.559 8.59989 219.159 9.75989 220.359 10.7199Z" fill="white"/>
</svg>
